<svg width="102" height="55" viewBox="0 0 102 55" fill="none" xmlns="http://www.w3.org/2000/svg">
<rect width="102" height="55" rx="12" fill="#1C1C1C"/>
<path d="M29.3907 37.8907C29.5225 38.0225 29.6905 38.1124 29.8734 38.1487C30.0562 38.1851 30.2458 38.1665 30.4181 38.0951C30.5904 38.0237 30.7376 37.9029 30.8412 37.7478C30.9448 37.5928 31 37.4105 31 37.224V32.8333C31 32.4797 31.1405 32.1406 31.3905 31.8905C31.6406 31.6405 31.9797 31.5 32.3333 31.5H40.3333C40.6869 31.5 41.0261 31.3595 41.2761 31.1095C41.5262 30.8594 41.6667 30.5203 41.6667 30.1667V24.8333C41.6667 24.4797 41.5262 24.1406 41.2761 23.8905C41.0261 23.6405 40.6869 23.5 40.3333 23.5H32.3333C31.9797 23.5 31.6406 23.3595 31.3905 23.1095C31.1405 22.8594 31 22.5203 31 22.1667V17.776C31 17.5895 30.9448 17.4072 30.8412 17.2522C30.7376 17.0971 30.5904 16.9763 30.4181 16.9049C30.2458 16.8335 30.0562 16.8149 29.8734 16.8513C29.6905 16.8876 29.5225 16.9775 29.3907 17.1093L20.1373 26.3627C19.9879 26.5121 19.8693 26.6895 19.7884 26.8848C19.7076 27.08 19.6659 27.2893 19.6659 27.5007C19.6659 27.712 19.7076 27.9213 19.7884 28.1166C19.8693 28.3118 19.9879 28.4892 20.1373 28.6387L29.3907 37.8907Z" stroke="#A0A0A0" stroke-width="2" stroke-linecap="round" stroke-linejoin="round"/>
<path d="M72.6093 37.8907C72.4775 38.0225 72.3095 38.1124 72.1266 38.1487C71.9438 38.1851 71.7542 38.1665 71.5819 38.0951C71.4096 38.0237 71.2624 37.9029 71.1588 37.7478C71.0552 37.5928 71 37.4105 71 37.224V32.8333C71 32.4797 70.8595 32.1406 70.6095 31.8905C70.3594 31.6405 70.0203 31.5 69.6667 31.5H61.6667C61.3131 31.5 60.9739 31.3595 60.7239 31.1095C60.4738 30.8594 60.3333 30.5203 60.3333 30.1667V24.8333C60.3333 24.4797 60.4738 24.1406 60.7239 23.8905C60.9739 23.6405 61.3131 23.5 61.6667 23.5H69.6667C70.0203 23.5 70.3594 23.3595 70.6095 23.1095C70.8595 22.8594 71 22.5203 71 22.1667V17.776C71 17.5895 71.0552 17.4072 71.1588 17.2522C71.2624 17.0971 71.4096 16.9763 71.5819 16.9049C71.7542 16.8335 71.9438 16.8149 72.1266 16.8513C72.3095 16.8876 72.4775 16.9775 72.6093 17.1093L81.8627 26.3627C82.0121 26.5121 82.1307 26.6895 82.2116 26.8848C82.2924 27.08 82.3341 27.2893 82.3341 27.5007C82.3341 27.712 82.2924 27.9213 82.2116 28.1166C82.1307 28.3118 82.0121 28.4892 81.8627 28.6387L72.6093 37.8907Z" stroke="#A0A0A0" stroke-width="2" stroke-linecap="round" stroke-linejoin="round"/>
</svg>
