<svg width="55" height="55" viewBox="0 0 55 55" fill="none" xmlns="http://www.w3.org/2000/svg">
<rect width="55" height="55" rx="12" fill="#1C1C1C"/>
<path d="M27.6286 37.36C25.9006 37.36 24.4206 36.984 23.1886 36.232C21.9566 35.472 21.0086 34.416 20.3446 33.064C19.6886 31.712 19.3606 30.144 19.3606 28.36C19.3606 26.576 19.6886 25.008 20.3446 23.656C21.0086 22.304 21.9566 21.252 23.1886 20.5C24.4206 19.74 25.9006 19.36 27.6286 19.36C29.6206 19.36 31.2806 19.86 32.6086 20.86C33.9366 21.852 34.8686 23.192 35.4046 24.88L32.4886 25.684C32.1526 24.556 31.5806 23.676 30.7726 23.044C29.9646 22.404 28.9166 22.084 27.6286 22.084C26.4686 22.084 25.5006 22.344 24.7246 22.864C23.9566 23.384 23.3766 24.116 22.9846 25.06C22.6006 25.996 22.4046 27.096 22.3966 28.36C22.3966 29.624 22.5886 30.728 22.9726 31.672C23.3646 32.608 23.9486 33.336 24.7246 33.856C25.5006 34.376 26.4686 34.636 27.6286 34.636C28.9166 34.636 29.9646 34.316 30.7726 33.676C31.5806 33.036 32.1526 32.156 32.4886 31.036L35.4046 31.84C34.8686 33.528 33.9366 34.872 32.6086 35.872C31.2806 36.864 29.6206 37.36 27.6286 37.36Z" fill="#A0A0A0"/>
</svg>
