<svg width="16" height="16" viewBox="0 0 16 16" fill="none" xmlns="http://www.w3.org/2000/svg">
<path d="M8.40067 14.5327C9.64067 13.462 13.3333 9.99534 13.3333 6.66668C13.3333 5.25219 12.7714 3.89563 11.7712 2.89544C10.771 1.89525 9.41449 1.33334 8.00001 1.33334C6.58552 1.33334 5.22896 1.89525 4.22877 2.89544C3.22857 3.89563 2.66667 5.25219 2.66667 6.66668C2.66667 9.99534 6.35934 13.462 7.59934 14.5327C7.71486 14.6195 7.85547 14.6665 8.00001 14.6665C8.14454 14.6665 8.28515 14.6195 8.40067 14.5327Z" stroke="#A0A0A0" stroke-linecap="round" stroke-linejoin="round"/>
<path d="M8 8.66666C9.10457 8.66666 10 7.77123 10 6.66666C10 5.56209 9.10457 4.66666 8 4.66666C6.89543 4.66666 6 5.56209 6 6.66666C6 7.77123 6.89543 8.66666 8 8.66666Z" stroke="#A0A0A0" stroke-linecap="round" stroke-linejoin="round"/>
</svg>
