<svg width="27" height="27" viewBox="0 0 27 27" fill="none" xmlns="http://www.w3.org/2000/svg">
<path d="M23.625 4.5V22.5" stroke="#A0A0A0" stroke-width="2" stroke-linecap="round" stroke-linejoin="round"/>
<path d="M6.78262 4.82065C6.4412 4.61579 6.05153 4.5052 5.65339 4.50018C5.25525 4.49516 4.86291 4.59588 4.51642 4.79205C4.16994 4.98823 3.88171 5.27284 3.68118 5.61683C3.48065 5.96081 3.375 6.35185 3.375 6.75002V20.25C3.375 20.6482 3.48065 21.0392 3.68118 21.3832C3.88171 21.7272 4.16994 22.0118 4.51642 22.208C4.86291 22.4042 5.25525 22.5049 5.65339 22.4999C6.05153 22.4948 6.4412 22.3843 6.78262 22.1794L18.0292 15.4316C18.3631 15.2322 18.6396 14.9496 18.8317 14.6114C19.0237 14.2732 19.1249 13.891 19.1252 13.5021C19.1256 13.1132 19.0251 12.7308 18.8336 12.3923C18.6421 12.0538 18.3661 11.7707 18.0326 11.5706L6.78262 4.82065Z" fill="#A0A0A0" stroke="#A0A0A0" stroke-width="2" stroke-linecap="round" stroke-linejoin="round"/>
</svg>
