<svg width="27" height="27" viewBox="0 0 27 27" fill="none" xmlns="http://www.w3.org/2000/svg">
<path d="M20.25 3.375H16.875C16.2537 3.375 15.75 3.87868 15.75 4.5V22.5C15.75 23.1213 16.2537 23.625 16.875 23.625H20.25C20.8713 23.625 21.375 23.1213 21.375 22.5V4.5C21.375 3.87868 20.8713 3.375 20.25 3.375Z" fill="#F5F5F5" stroke="#F5F5F5" stroke-width="2" stroke-linecap="round" stroke-linejoin="round"/>
<path d="M10.125 3.375H6.75C6.12868 3.375 5.625 3.87868 5.625 4.5V22.5C5.625 23.1213 6.12868 23.625 6.75 23.625H10.125C10.7463 23.625 11.25 23.1213 11.25 22.5V4.5C11.25 3.87868 10.7463 3.375 10.125 3.375Z" fill="#F5F5F5" stroke="#F5F5F5" stroke-width="2" stroke-linecap="round" stroke-linejoin="round"/>
</svg>
