<svg width="27" height="27" viewBox="0 0 27 27" fill="none" xmlns="http://www.w3.org/2000/svg">
<path d="M5.625 5.625C5.62488 5.2291 5.72923 4.84018 5.92749 4.49751C6.12576 4.15484 6.41094 3.87055 6.75422 3.67334C7.0975 3.47614 7.48674 3.373 7.88264 3.37434C8.27853 3.37569 8.66706 3.48146 9.009 3.681L22.5056 11.5537C22.8462 11.7514 23.129 12.035 23.3257 12.3761C23.5224 12.7173 23.626 13.1041 23.6264 13.4979C23.6267 13.8917 23.5237 14.2787 23.3276 14.6202C23.1315 14.9617 22.8493 15.2458 22.509 15.444L9.009 23.319C8.66706 23.5185 8.27853 23.6243 7.88264 23.6257C7.48674 23.627 7.0975 23.5239 6.75422 23.3267C6.41094 23.1294 6.12576 22.8452 5.92749 22.5025C5.72923 22.1598 5.62488 21.7709 5.625 21.375V5.625Z" fill="#F5F5F5" stroke="#F5F5F5" stroke-width="2" stroke-linecap="round" stroke-linejoin="round"/>
</svg>
