<svg width="27" height="27" viewBox="0 0 27 27" fill="none" xmlns="http://www.w3.org/2000/svg">
<path d="M3.375 4.5V22.5" stroke="#A0A0A0" stroke-width="2" stroke-linecap="round" stroke-linejoin="round"/>
<path d="M20.2174 4.82065C20.5588 4.61579 20.9485 4.5052 21.3466 4.50018C21.7448 4.49516 22.1371 4.59588 22.4836 4.79205C22.8301 4.98823 23.1183 5.27284 23.3188 5.61683C23.5193 5.96081 23.625 6.35185 23.625 6.75002V20.25C23.625 20.6482 23.5193 21.0392 23.3188 21.3832C23.1183 21.7272 22.8301 22.0118 22.4836 22.208C22.1371 22.4042 21.7448 22.5049 21.3466 22.4999C20.9485 22.4948 20.5588 22.3843 20.2174 22.1794L8.97075 15.4316C8.63688 15.2322 8.36042 14.9496 8.16834 14.6114C7.97626 14.2732 7.87511 13.891 7.87477 13.5021C7.87443 13.1132 7.97491 12.7308 8.1664 12.3923C8.35789 12.0538 8.63386 11.7707 8.96738 11.5706L20.2174 4.82065Z" fill="#A0A0A0" stroke="#A0A0A0" stroke-width="2" stroke-linecap="round" stroke-linejoin="round"/>
</svg>
