<svg width="55" height="55" viewBox="0 0 55 55" fill="none" xmlns="http://www.w3.org/2000/svg">
<rect width="55" height="55" rx="12" fill="#1C1C1C"/>
<path d="M21.2581 37V19.72H28.3981C28.5661 19.72 28.7821 19.728 29.0461 19.744C29.3101 19.752 29.5541 19.776 29.7781 19.816C30.7781 19.968 31.6021 20.3 32.2501 20.812C32.9061 21.324 33.3901 21.972 33.7021 22.756C34.0221 23.532 34.1821 24.396 34.1821 25.348C34.1821 26.756 33.8261 27.968 33.1141 28.984C32.4021 29.992 31.3101 30.616 29.8381 30.856L28.6021 30.964H24.1501V37H21.2581ZM31.1821 37L27.7741 29.968L30.7141 29.32L34.4581 37H31.1821ZM24.1501 28.264H28.2781C28.4381 28.264 28.6181 28.256 28.8181 28.24C29.0181 28.224 29.2021 28.192 29.3701 28.144C29.8501 28.024 30.2261 27.812 30.4981 27.508C30.7781 27.204 30.9741 26.86 31.0861 26.476C31.2061 26.092 31.2661 25.716 31.2661 25.348C31.2661 24.98 31.2061 24.604 31.0861 24.22C30.9741 23.828 30.7781 23.48 30.4981 23.176C30.2261 22.872 29.8501 22.66 29.3701 22.54C29.2021 22.492 29.0181 22.464 28.8181 22.456C28.6181 22.44 28.4381 22.432 28.2781 22.432H24.1501V28.264Z" fill="#A0A0A0"/>
</svg>
