<svg width="27" height="27" viewBox="0 0 27 27" fill="none" xmlns="http://www.w3.org/2000/svg">
<path d="M12.375 5.28972C12.3748 5.13302 12.3281 4.9799 12.241 4.84968C12.1538 4.71947 12.03 4.61799 11.8852 4.55805C11.7405 4.49812 11.5812 4.48241 11.4275 4.51292C11.2738 4.54343 11.1325 4.61878 11.0216 4.72947L7.21463 8.53535C7.0677 8.68314 6.89291 8.80032 6.70038 8.88007C6.50785 8.95983 6.3014 9.00058 6.093 8.99997H3.375C3.07663 8.99997 2.79048 9.1185 2.5795 9.32948C2.36853 9.54045 2.25 9.8266 2.25 10.125V16.875C2.25 17.1733 2.36853 17.4595 2.5795 17.6705C2.79048 17.8814 3.07663 18 3.375 18H6.093C6.3014 17.9994 6.50785 18.0401 6.70038 18.1199C6.89291 18.1996 7.0677 18.3168 7.21463 18.4646L11.0205 22.2716C11.1314 22.3827 11.2728 22.4585 11.4268 22.4891C11.5808 22.5198 11.7405 22.5041 11.8855 22.444C12.0306 22.3839 12.1546 22.2821 12.2417 22.1514C12.3288 22.0208 12.3752 21.8672 12.375 21.7102V5.28972Z" stroke="#A0A0A0" stroke-width="2" stroke-linecap="round" stroke-linejoin="round"/>
<path d="M24.75 10.125L18 16.875" stroke="#A0A0A0" stroke-width="2" stroke-linecap="round" stroke-linejoin="round"/>
<path d="M18 10.125L24.75 16.875" stroke="#A0A0A0" stroke-width="2" stroke-linecap="round" stroke-linejoin="round"/>
</svg>
