<svg width="108" height="55" viewBox="0 0 108 55" fill="none" xmlns="http://www.w3.org/2000/svg">
<rect width="108" height="55" rx="12" fill="#1C1C1C"/>
<path d="M23.4276 37.36C22.1636 37.36 21.0236 37.14 20.0076 36.7C18.9996 36.26 18.1676 35.632 17.5116 34.816C16.8636 33.992 16.4516 33.016 16.2756 31.888L19.2756 31.432C19.5316 32.456 20.0556 33.248 20.8476 33.808C21.6476 34.368 22.5676 34.648 23.6076 34.648C24.2236 34.648 24.8036 34.552 25.3476 34.36C25.8916 34.168 26.3316 33.888 26.6676 33.52C27.0116 33.152 27.1836 32.7 27.1836 32.164C27.1836 31.924 27.1436 31.704 27.0636 31.504C26.9836 31.296 26.8636 31.112 26.7036 30.952C26.5516 30.792 26.3516 30.648 26.1036 30.52C25.8636 30.384 25.5836 30.268 25.2636 30.172L20.7996 28.852C20.4156 28.74 19.9996 28.592 19.5516 28.408C19.1116 28.216 18.6916 27.956 18.2916 27.628C17.8996 27.292 17.5756 26.868 17.3196 26.356C17.0716 25.836 16.9476 25.196 16.9476 24.436C16.9476 23.324 17.2276 22.392 17.7876 21.64C18.3556 20.88 19.1156 20.312 20.0676 19.936C21.0276 19.56 22.0916 19.376 23.2596 19.384C24.4436 19.392 25.4996 19.596 26.4276 19.996C27.3556 20.388 28.1316 20.96 28.7556 21.712C29.3796 22.464 29.8196 23.372 30.0756 24.436L26.9676 24.976C26.8396 24.368 26.5916 23.852 26.2236 23.428C25.8636 22.996 25.4196 22.668 24.8916 22.444C24.3716 22.22 23.8156 22.1 23.2236 22.084C22.6476 22.076 22.1116 22.164 21.6156 22.348C21.1276 22.524 20.7316 22.78 20.4276 23.116C20.1316 23.452 19.9836 23.844 19.9836 24.292C19.9836 24.716 20.1116 25.064 20.3676 25.336C20.6236 25.6 20.9396 25.812 21.3156 25.972C21.6996 26.124 22.0876 26.252 22.4796 26.356L25.5756 27.22C25.9996 27.332 26.4756 27.484 27.0036 27.676C27.5316 27.868 28.0396 28.136 28.5276 28.48C29.0156 28.824 29.4156 29.276 29.7276 29.836C30.0476 30.396 30.2076 31.108 30.2076 31.972C30.2076 32.868 30.0196 33.656 29.6436 34.336C29.2756 35.008 28.7756 35.568 28.1436 36.016C27.5116 36.464 26.7876 36.8 25.9716 37.024C25.1636 37.248 24.3156 37.36 23.4276 37.36ZM32.805 37V19.72H39.945C40.113 19.72 40.329 19.728 40.593 19.744C40.857 19.752 41.101 19.776 41.325 19.816C42.325 19.968 43.149 20.3 43.797 20.812C44.453 21.324 44.937 21.972 45.249 22.756C45.569 23.532 45.729 24.396 45.729 25.348C45.729 26.292 45.569 27.156 45.249 27.94C44.929 28.716 44.441 29.36 43.785 29.872C43.137 30.384 42.317 30.716 41.325 30.868C41.101 30.9 40.853 30.924 40.581 30.94C40.317 30.956 40.105 30.964 39.945 30.964H35.697V37H32.805ZM35.697 28.264H39.825C39.985 28.264 40.165 28.256 40.365 28.24C40.565 28.224 40.749 28.192 40.917 28.144C41.397 28.024 41.773 27.812 42.045 27.508C42.325 27.204 42.521 26.86 42.633 26.476C42.753 26.092 42.813 25.716 42.813 25.348C42.813 24.98 42.753 24.604 42.633 24.22C42.521 23.828 42.325 23.48 42.045 23.176C41.773 22.872 41.397 22.66 40.917 22.54C40.749 22.492 40.565 22.464 40.365 22.456C40.165 22.44 39.985 22.432 39.825 22.432H35.697V28.264ZM45.7378 37L51.1858 19.72H55.4218L60.8698 37H57.8938L52.9498 21.496H53.5978L48.7138 37H45.7378ZM48.7738 33.256V30.556H57.8458V33.256H48.7738ZM69.8786 37.36C68.1506 37.36 66.6706 36.984 65.4386 36.232C64.2066 35.472 63.2586 34.416 62.5946 33.064C61.9386 31.712 61.6106 30.144 61.6106 28.36C61.6106 26.576 61.9386 25.008 62.5946 23.656C63.2586 22.304 64.2066 21.252 65.4386 20.5C66.6706 19.74 68.1506 19.36 69.8786 19.36C71.8706 19.36 73.5306 19.86 74.8586 20.86C76.1866 21.852 77.1186 23.192 77.6546 24.88L74.7386 25.684C74.4026 24.556 73.8306 23.676 73.0226 23.044C72.2146 22.404 71.1666 22.084 69.8786 22.084C68.7186 22.084 67.7506 22.344 66.9746 22.864C66.2066 23.384 65.6266 24.116 65.2346 25.06C64.8506 25.996 64.6546 27.096 64.6466 28.36C64.6466 29.624 64.8386 30.728 65.2226 31.672C65.6146 32.608 66.1986 33.336 66.9746 33.856C67.7506 34.376 68.7186 34.636 69.8786 34.636C71.1666 34.636 72.2146 34.316 73.0226 33.676C73.8306 33.036 74.4026 32.156 74.7386 31.036L77.6546 31.84C77.1186 33.528 76.1866 34.872 74.8586 35.872C73.5306 36.864 71.8706 37.36 69.8786 37.36ZM80.2894 37V19.72H91.4494V22.432H83.1814V26.692H90.0094V29.404H83.1814V34.288H91.4494V37H80.2894Z" fill="#A0A0A0"/>
</svg>
