<svg width="512" height="512" viewBox="0 0 512 512" fill="none" xmlns="http://www.w3.org/2000/svg">
<g clip-path="url(#clip0_285_2)">
<rect width="512" height="512" fill="black"/>
<path d="M0 0H512V512H0V0Z" fill="black"/>
<path d="M280.938 61.2385C281.155 61.0705 281.167 60.9906 281.368 61.0009C281.746 61.2524 281.544 63.8991 281.535 64.3941C281.564 64.8224 281.53 64.9976 281.489 65.4494C285.543 104.027 301.281 141.892 331.972 166.88C345.595 177.973 362.85 185.716 380.604 186.347C381.501 186.285 383.144 186.296 384.013 186.489L383.949 186.504L384.305 186.591C384.315 186.642 384.324 186.694 384.334 186.745C384.004 187.181 379.338 187.393 378.537 187.393C349.893 189.761 307.646 204.51 311.886 239.745C319.453 302.611 403.873 310.242 452.653 312.469C452.737 312.574 452.947 312.866 453 312.945C452.776 313.103 451.28 313.356 450.852 313.483C442.291 313.762 433.609 315.145 425.229 316.866C387.753 324.562 357.054 344.526 337.124 377.438C325.055 397.371 316.122 418.094 297.975 433.64C285.438 444.38 269.609 452.236 252.713 450.839C242.711 450.012 233.166 446.264 224.719 440.949C191.698 420.175 186.845 387.635 163.84 360.375C135.749 327.089 100.834 316.743 59 313.196C59.4794 312.929 59.9618 312.666 60.4471 312.408C64.9768 312.538 76.8237 311.287 81.8291 310.891C112.838 308.429 149.599 303.098 175.182 283.89C188.443 273.552 199.167 258.23 201.179 241.381C205.688 203.627 163.773 190.114 133.418 187.052L133.73 186.356C164.094 184.466 189.571 163.81 206.038 139.528C220.742 117.847 228.164 92.8582 231.321 67.0671C232.373 66.3991 232.163 69.1836 232.279 70.0673C233.601 113.581 234.97 149.723 209.312 187.024C214.605 190.474 219.179 193.375 223.439 198.12C244.701 221.804 241.777 256.564 224.692 281.695C211.05 301.76 191.744 314.87 169.839 324.35C192.876 334.994 205.583 351.217 219.167 371.857C223.055 377.765 228.705 386.104 233.889 390.707C243.604 399.194 257.224 401.637 269.295 397.06C285.373 391.066 302.068 355.78 315.869 343.335C326.925 333.366 330.801 331.308 343.145 323.889C302.264 309.179 262.395 264.308 277.975 217.884C282.568 204.199 291.368 194.327 303.551 186.679C277.205 146.641 279.995 116.572 280.537 70.6209C280.37 66.8105 280.669 64.9118 280.938 61.2385Z" fill="white"/>
</g>
<defs>
<clipPath id="clip0_285_2">
<rect width="512" height="512" fill="white"/>
</clipPath>
</defs>
</svg>
