<svg width="512" height="512" viewBox="0 0 512 512" fill="none" xmlns="http://www.w3.org/2000/svg">
<g clip-path="url(#clip0_34_28)">
<rect width="512" height="512" fill="#0B0B0D"/>
<path d="M256 469.333C373.821 469.333 469.333 373.821 469.333 256C469.333 138.179 373.821 42.6667 256 42.6667C138.179 42.6667 42.6667 138.179 42.6667 256C42.6667 373.821 138.179 469.333 256 469.333Z" fill="#F5F5F5" stroke="#F5F5F5" stroke-width="2" stroke-linecap="round" stroke-linejoin="round"/>
<path d="M105.173 105.173L195.627 195.627" stroke="#0B0B0D" stroke-width="24" stroke-linecap="round" stroke-linejoin="round"/>
<path d="M316.373 195.627L406.827 105.173" stroke="#0B0B0D" stroke-width="24" stroke-linecap="round" stroke-linejoin="round"/>
<path d="M316.373 316.373L406.827 406.827" stroke="#0B0B0D" stroke-width="24" stroke-linecap="round" stroke-linejoin="round"/>
<path d="M195.627 316.373L105.173 406.827" stroke="#0B0B0D" stroke-width="24" stroke-linecap="round" stroke-linejoin="round"/>
<path d="M256 341.333C303.128 341.333 341.333 303.128 341.333 256C341.333 208.872 303.128 170.667 256 170.667C208.872 170.667 170.667 208.872 170.667 256C170.667 303.128 208.872 341.333 256 341.333Z" stroke="#0B0B0D" stroke-width="24" stroke-linecap="round" stroke-linejoin="round"/>
</g>
<defs>
<clipPath id="clip0_34_28">
<rect width="512" height="512" fill="white"/>
</clipPath>
</defs>
</svg>
